<svg xmlns="http://www.w3.org/2000/svg" role="img" aria-label="Image caption vote package flow" viewBox="0 0 2220 580" width="2220" height="580">
<defs><marker id="arrow" markerWidth="12" markerHeight="12" refX="11" refY="6" orient="auto"><path d="M0 0L12 6L0 12" fill="#000000"/></marker></defs>
<rect width="100%" height="100%" fill="#ffffff"/><text x="80" y="55" fill="#000000" font-family="Arial,sans-serif" font-size="36" font-weight="700">Image caption vote</text><text x="80" y="88" fill="#000000" font-family="monospace" font-size="18">behavior: offered_response_vote@1</text>
<path d="M 340 197.5 C 390 197.5, 470 197.5, 520 197.5" fill="none" stroke="#000000" stroke-width="2" marker-end="url(#arrow)"/><text x="430" y="132.5" text-anchor="middle" fill="#000000" font-size="18" font-family="Arial,sans-serif">opensAt</text><path d="M 790 197.5 C 840 197.5, 920 197.5, 970 197.5" fill="none" stroke="#000000" stroke-width="2" marker-end="url(#arrow)"/><text x="880" y="122.5" text-anchor="middle" fill="#000000" font-size="18" font-family="Arial,sans-serif">sourceDeadline</text><text x="880" y="144.5" text-anchor="middle" fill="#000000" font-size="18" font-family="Arial,sans-serif">≥3 sources</text><path d="M 790 197.5 C 840 197.5, 920 417.5, 970 417.5" fill="none" stroke="#000000" stroke-width="2" marker-end="url(#arrow)"/><text x="980" y="297.5" text-anchor="middle" fill="#000000" font-size="18" font-family="Arial,sans-serif">sourceDeadline</text><text x="980" y="319.5" text-anchor="middle" fill="#000000" font-size="18" font-family="Arial,sans-serif">&lt;3</text><path d="M 1240 197.5 C 1290 197.5, 1370 197.5, 1420 197.5" fill="none" stroke="#000000" stroke-width="2" marker-end="url(#arrow)"/><text x="1330" y="132.5" text-anchor="middle" fill="#000000" font-size="18" font-family="Arial,sans-serif">responseDeadline</text><path d="M 1690 197.5 C 1740 197.5, 1820 197.5, 1870 197.5" fill="none" stroke="#000000" stroke-width="2" marker-end="url(#arrow)"/><text x="1780" y="132.5" text-anchor="middle" fill="#000000" font-size="18" font-family="Arial,sans-serif">voteDeadline</text><rect x="80" y="145" width="260" height="105" rx="12" fill="#2c7fd8"/><text x="210" y="205" text-anchor="middle" fill="#000000" font-family="Arial,sans-serif" font-size="21" font-weight="700">Waiting</text><rect x="530" y="145" width="260" height="105" rx="12" fill="#3aa8be"/><text x="660" y="205" text-anchor="middle" fill="#000000" font-family="Arial,sans-serif" font-size="21" font-weight="700">Sources open</text><rect x="980" y="145" width="260" height="105" rx="12" fill="#dbbd42"/><text x="1110" y="205" text-anchor="middle" fill="#000000" font-family="Arial,sans-serif" font-size="21" font-weight="700">Responses open</text><rect x="980" y="365" width="260" height="105" rx="12" fill="#db4275"/><text x="1110" y="425" text-anchor="middle" fill="#000000" font-family="Arial,sans-serif" font-size="21" font-weight="700">Insufficient sources</text><rect x="1430" y="145" width="260" height="105" rx="12" fill="#6eb951"/><text x="1560" y="205" text-anchor="middle" fill="#000000" font-family="Arial,sans-serif" font-size="21" font-weight="700">Voting</text><rect x="1880" y="145" width="260" height="105" rx="12" fill="#6652b1"/><text x="2010" y="205" text-anchor="middle" fill="#000000" font-family="Arial,sans-serif" font-size="21" font-weight="700">Complete</text><text x="80" y="556" fill="#000000" font-family="Arial,sans-serif" font-size="16">Package blueprint · times and participants are supplied when an instance starts</text></svg>
