<svg xmlns="http://www.w3.org/2000/svg" role="img" aria-label="Image caption vote package flow" viewBox="0 0 521 676" width="521" height="676">
<defs><marker id="arrow" markerWidth="7" markerHeight="7" refX="6" refY="3.5" orient="auto"><path d="M0 0L7 3.5L0 7" fill="#000000"/></marker></defs>
<rect width="100%" height="100%" fill="#ffffff"/><text x="20" y="38" fill="#000000" font-family="Arial,sans-serif" font-size="28" font-weight="700">Image caption vote</text><text x="20" y="64" fill="#000000" font-family="monospace" font-size="16">behavior: offered_response_vote@1</text>
<path d="M 96 172 L 96 227" fill="none" stroke="#000000" stroke-width="2" marker-end="url(#arrow)"/><text x="120" y="204.5" text-anchor="start" fill="#000000" font-size="14" font-family="Arial,sans-serif">opensAt</text><path d="M 96 288 L 96 343" fill="none" stroke="#000000" stroke-width="2" marker-end="url(#arrow)"/><text x="120" y="320.5" text-anchor="start" fill="#000000" font-size="14" font-family="Arial,sans-serif">sourceDeadline · ≥3 sources</text><path d="M 164 260 L 296 260" fill="none" stroke="#000000" stroke-width="2" marker-end="url(#arrow)"/><text x="230" y="237" text-anchor="middle" fill="#000000" font-size="14" font-family="Arial,sans-serif">sourceDeadline</text><text x="230" y="253" text-anchor="middle" fill="#000000" font-size="14" font-family="Arial,sans-serif">&lt;3</text><path d="M 96 404 L 96 459" fill="none" stroke="#000000" stroke-width="2" marker-end="url(#arrow)"/><text x="120" y="436.5" text-anchor="start" fill="#000000" font-size="14" font-family="Arial,sans-serif">responseDeadline</text><path d="M 96 520 L 96 575" fill="none" stroke="#000000" stroke-width="2" marker-end="url(#arrow)"/><text x="120" y="552.5" text-anchor="start" fill="#000000" font-size="14" font-family="Arial,sans-serif">voteDeadline</text><rect x="48" y="116" width="96" height="56" rx="8" fill="#2c7fd8"/><text x="96" y="149" text-anchor="middle" fill="#000000" font-family="Arial,sans-serif" font-size="16" font-weight="700">Waiting</text><rect x="28" y="232" width="136" height="56" rx="8" fill="#3aa8be"/><text x="96" y="265" text-anchor="middle" fill="#000000" font-family="Arial,sans-serif" font-size="16" font-weight="700">Sources open</text><rect x="20" y="348" width="152" height="56" rx="8" fill="#dbbd42"/><text x="96" y="381" text-anchor="middle" fill="#000000" font-family="Arial,sans-serif" font-size="16" font-weight="700">Responses open</text><rect x="301" y="232" width="200" height="56" rx="8" fill="#db4275"/><text x="401" y="265" text-anchor="middle" fill="#000000" font-family="Arial,sans-serif" font-size="16" font-weight="700">Insufficient sources</text><rect x="52" y="464" width="88" height="56" rx="8" fill="#6eb951"/><text x="96" y="497" text-anchor="middle" fill="#000000" font-family="Arial,sans-serif" font-size="16" font-weight="700">Voting</text><rect x="44" y="580" width="104" height="56" rx="8" fill="#6652b1"/><text x="96" y="613" text-anchor="middle" fill="#000000" font-family="Arial,sans-serif" font-size="16" font-weight="700">Complete</text></svg>
