<svg xmlns="http://www.w3.org/2000/svg" role="img" aria-label="Image caption vote package flow" viewBox="0 0 1264 345" width="1264" height="345">
<defs><marker id="arrow" markerWidth="7" markerHeight="7" refX="6" refY="3.5" orient="auto"><path d="M0 0L7 3.5L0 7" fill="#000000"/></marker></defs>
<rect width="100%" height="100%" fill="#ffffff"/><text x="20" y="38" fill="#000000" font-family="Arial,sans-serif" font-size="28" font-weight="700">Image caption vote</text><text x="20" y="66" fill="#000000" font-family="monospace" font-size="16">behavior: offered_response_vote@1</text>
<path d="M 134 153 C 158.66666666666666 153, 183.33333333333334 153, 208 153" fill="none" stroke="#000000" stroke-width="2" marker-end="url(#arrow)"/><text x="171" y="133" text-anchor="middle" fill="#000000" font-size="14" font-family="Arial,sans-serif">opensAt</text><path d="M 379 153 C 409 153, 504.5 153, 534.5 153" fill="none" stroke="#000000" stroke-width="2" marker-end="url(#arrow)"/><text x="456.75" y="125" text-anchor="middle" fill="#000000" font-size="14" font-family="Arial,sans-serif">sourceDeadline</text><text x="456.75" y="142" text-anchor="middle" fill="#000000" font-size="14" font-family="Arial,sans-serif">≥3 sources</text><path d="M 379 153 C 409 153, 473 268, 503 268" fill="none" stroke="#000000" stroke-width="2" marker-end="url(#arrow)"/><text x="511" y="203" text-anchor="middle" fill="#000000" font-size="14" font-family="Arial,sans-serif">sourceDeadline</text><text x="511" y="220" text-anchor="middle" fill="#000000" font-size="14" font-family="Arial,sans-serif">&lt;3</text><path d="M 726.5 153 C 756.5 153, 867 153, 897 153" fill="none" stroke="#000000" stroke-width="2" marker-end="url(#arrow)"/><text x="811.75" y="133" text-anchor="middle" fill="#000000" font-size="14" font-family="Arial,sans-serif">responseDeadline</text><path d="M 1005 153 C 1035 153, 1085 153, 1115 153" fill="none" stroke="#000000" stroke-width="2" marker-end="url(#arrow)"/><text x="1060" y="133" text-anchor="middle" fill="#000000" font-size="14" font-family="Arial,sans-serif">voteDeadline</text><rect x="20" y="122.5" width="114" height="61" rx="8" fill="#2c7fd8"/><text x="77" y="160" text-anchor="middle" fill="#000000" font-family="Arial,sans-serif" font-size="21" font-weight="700">Waiting</text><rect x="213" y="122.5" width="166" height="61" rx="8" fill="#3aa8be"/><text x="296" y="160" text-anchor="middle" fill="#000000" font-family="Arial,sans-serif" font-size="21" font-weight="700">Sources open</text><rect x="539.5" y="122.5" width="187" height="61" rx="8" fill="#dbbd42"/><text x="633" y="160" text-anchor="middle" fill="#000000" font-family="Arial,sans-serif" font-size="21" font-weight="700">Responses open</text><rect x="508" y="237.5" width="250" height="61" rx="8" fill="#db4275"/><text x="633" y="275" text-anchor="middle" fill="#000000" font-family="Arial,sans-serif" font-size="21" font-weight="700">Insufficient sources</text><rect x="902" y="122.5" width="103" height="61" rx="8" fill="#6eb951"/><text x="953.5" y="160" text-anchor="middle" fill="#000000" font-family="Arial,sans-serif" font-size="21" font-weight="700">Voting</text><rect x="1120" y="122.5" width="124" height="61" rx="8" fill="#6652b1"/><text x="1182" y="160" text-anchor="middle" fill="#000000" font-family="Arial,sans-serif" font-size="21" font-weight="700">Complete</text><text x="20" y="329" fill="#000000" font-family="Arial,sans-serif" font-size="13">Package blueprint · instance details supplied at start</text></svg>
