<svg xmlns="http://www.w3.org/2000/svg" width="446" height="1814" viewBox="0 0 446 1814" aria-label="1-2-4-All fixed digital rooms runbook" style="font-family:Arial,sans-serif;fill:black"><defs><marker id="arrow" markerWidth="7" markerHeight="7" refX="6" refY="3.5" orient="auto"><path d="M0 0L7 3.5L0 7"/></marker></defs><rect width="100%" height="100%" fill="white"/><text x="20" y="32" font-size="24" font-weight="700">1-2-4-All fixed digital rooms</text><text x="20" y="59" font-size="14">harmonomicon.activity-package/0.14</text><g data-step="invitation" tabindex="0" role="button" aria-label="invitation pause@1"><title>/runbook/steps/0</title><rect x="52" y="114" width="296" height="123" rx="8" fill="#2c7fd8"/><text x="72" y="143" font-weight="700" font-size="16">invitation</text><text x="72" y="166" font-size="14">pause@1</text><text x="72" y="187" font-size="14">“Consider the shared challenge.”</text><text x="72" y="208" font-size="14">Closes: 1 min passes</text></g><g data-step="solo_rooms" tabindex="0" role="button" aria-label="solo_rooms partition@1"><title>/runbook/steps/1</title><rect x="40" y="285" width="320" height="144" rx="8" fill="#3aa8be"/><text x="60" y="314" font-weight="700" font-size="16">solo_rooms</text><text x="60" y="337" font-size="14">partition@1</text><text x="60" y="358" font-size="14">“Assign the groups for this round.”</text><text x="60" y="379" font-size="14">Policy: policy:roster_chunks@1</text><text x="60" y="400" font-size="14">No timeout</text></g><g data-step="solo" tabindex="0" role="button" aria-label="solo collect_group@1"><title>/runbook/steps/2</title><rect x="52" y="477" width="296" height="144" rx="8" fill="#dbbd42"/><text x="72" y="506" font-weight="700" font-size="16">solo</text><text x="72" y="529" font-size="14">collect_group@1</text><text x="72" y="550" font-size="14">“Reflect privately.”</text><text x="72" y="571" font-size="14">Source: solo_rooms</text><text x="72" y="592" font-size="14">Closes: deadline OR 1 min passes</text></g><g data-step="pairs_rooms" tabindex="0" role="button" aria-label="pairs_rooms partition@1"><title>/runbook/steps/3</title><rect x="40" y="669" width="320" height="144" rx="8" fill="#6eb951"/><text x="60" y="698" font-weight="700" font-size="16">pairs_rooms</text><text x="60" y="721" font-size="14">partition@1</text><text x="60" y="742" font-size="14">“Assign the groups for this round.”</text><text x="60" y="763" font-size="14">Policy: policy:roster_chunks@1</text><text x="60" y="784" font-size="14">No timeout</text></g><g data-step="pairs" tabindex="0" role="button" aria-label="pairs collect_group@1"><title>/runbook/steps/4</title><rect x="44" y="861" width="312" height="144" rx="8" fill="#6652b1"/><text x="64" y="890" font-weight="700" font-size="16">pairs</text><text x="64" y="913" font-size="14">collect_group@1</text><text x="64" y="934" font-size="14">“Compare ideas with your partner.”</text><text x="64" y="955" font-size="14">Source: pairs_rooms</text><text x="64" y="976" font-size="14">Closes: deadline OR 2 min passes</text></g><g data-step="quartets_rooms" tabindex="0" role="button" aria-label="quartets_rooms partition@1"><title>/runbook/steps/5</title><rect x="40" y="1053" width="320" height="144" rx="8" fill="#db4275"/><text x="60" y="1082" font-weight="700" font-size="16">quartets_rooms</text><text x="60" y="1105" font-size="14">partition@1</text><text x="60" y="1126" font-size="14">“Assign the groups for this round.”</text><text x="60" y="1147" font-size="14">Policy: policy:roster_chunks@1</text><text x="60" y="1168" font-size="14">No timeout</text></g><g data-step="quartets" tabindex="0" role="button" aria-label="quartets collect_group@1"><title>/runbook/steps/6</title><rect x="20" y="1245" width="360" height="144" rx="8" fill="#2c7fd8"/><text x="40" y="1274" font-weight="700" font-size="16">quartets</text><text x="40" y="1297" font-size="14">collect_group@1</text><text x="40" y="1318" font-size="14">“Build a synthesis within your quartet.”</text><text x="40" y="1339" font-size="14">Source: quartets_rooms</text><text x="40" y="1360" font-size="14">Closes: deadline OR 5 min passes</text></g><g data-step="everyone_rooms" tabindex="0" role="button" aria-label="everyone_rooms partition@1"><title>/runbook/steps/7</title><rect x="40" y="1437" width="320" height="144" rx="8" fill="#3aa8be"/><text x="60" y="1466" font-weight="700" font-size="16">everyone_rooms</text><text x="60" y="1489" font-size="14">partition@1</text><text x="60" y="1510" font-size="14">“Assign the groups for this round.”</text><text x="60" y="1531" font-size="14">Policy: policy:roster_chunks@1</text><text x="60" y="1552" font-size="14">No timeout</text></g><g data-step="everyone" tabindex="0" role="button" aria-label="everyone collect_group@1"><title>/runbook/steps/8</title><rect x="40" y="1629" width="320" height="165" rx="8" fill="#dbbd42"/><text x="60" y="1658" font-weight="700" font-size="16">everyone</text><text x="60" y="1681" font-size="14">collect_group@1</text><text x="60" y="1702" font-size="14">“Share selected ideas with the full</text><text x="60" y="1723" font-size="14">group.”</text><text x="60" y="1744" font-size="14">Source: everyone_rooms</text><text x="60" y="1765" font-size="14">Closes: deadline OR 7 min passes</text></g><path d="M 200 237 L 200 280" fill="none" stroke="black" stroke-width="2" marker-end="url(#arrow)"/><text x="216" y="263.5" font-size="14">next</text><path d="M 200 429 L 200 472" fill="none" stroke="black" stroke-width="2" marker-end="url(#arrow)"/><text x="216" y="455.5" font-size="14">next</text><path d="M 200 621 L 200 664" fill="none" stroke="black" stroke-width="2" marker-end="url(#arrow)"/><text x="216" y="647.5" font-size="14">next</text><path d="M 200 813 L 200 856" fill="none" stroke="black" stroke-width="2" marker-end="url(#arrow)"/><text x="216" y="839.5" font-size="14">next</text><path d="M 200 1005 L 200 1048" fill="none" stroke="black" stroke-width="2" marker-end="url(#arrow)"/><text x="216" y="1031.5" font-size="14">next</text><path d="M 200 1197 L 200 1240" fill="none" stroke="black" stroke-width="2" marker-end="url(#arrow)"/><text x="216" y="1223.5" font-size="14">next</text><path d="M 200 1389 L 200 1432" fill="none" stroke="black" stroke-width="2" marker-end="url(#arrow)"/><text x="216" y="1415.5" font-size="14">next</text><path d="M 200 1581 L 200 1624" fill="none" stroke="black" stroke-width="2" marker-end="url(#arrow)"/><text x="216" y="1607.5" font-size="14">next</text></svg>