<svg xmlns="http://www.w3.org/2000/svg" width="446" height="896" viewBox="0 0 446 896" aria-label="Choose a conversation subject runbook" style="font-family:Arial,sans-serif;fill:black"><defs><marker id="arrow-0" markerUnits="userSpaceOnUse" markerWidth="14" markerHeight="14" refX="0" refY="7" orient="auto"><path d="M0 0L14 7L0 14Z" fill="#418cdc"/></marker><marker id="arrow-1" markerUnits="userSpaceOnUse" markerWidth="14" markerHeight="14" refX="0" refY="7" orient="auto"><path d="M0 0L14 7L0 14Z" fill="#4eb1c5"/></marker><marker id="arrow-2" markerUnits="userSpaceOnUse" markerWidth="14" markerHeight="14" refX="0" refY="7" orient="auto"><path d="M0 0L14 7L0 14Z" fill="#dfc455"/></marker></defs><rect width="100%" height="100%" fill="white"/><text x="20" y="32" font-size="24" font-weight="700">Choose a conversation subject</text><text x="20" y="59" font-size="14">harmonomicon.activity-package/0.24</text><g data-step="vote" tabindex="0" role="button" aria-label="vote vote@1"><title>/runbook/steps/0</title><rect x="20" y="114" width="376" height="249" rx="8" fill="#418cdc"/><text x="40" y="143" font-weight="700" font-size="18">Vote</text><text x="376" y="143" text-anchor="end" font-family="ui-monospace, SFMono-Regular, Menlo, Consolas, monospace" font-size="13">vote@1</text><text x="40" y="166" font-size="14">“Choose the subject for our next</text><text x="40" y="187" font-size="14">conversation.”</text><text x="40" y="208" font-size="14">Candidate options: repair: Repairing</text><text x="40" y="229" font-size="14">things · garden: Growing a garden · share:</text><text x="40" y="250" font-size="14">Sharing resources</text><text x="40" y="271" font-size="14">Ballot changes: forbidden</text><text x="40" y="292" font-size="14">Ballot visibility: private</text><text x="40" y="313" font-size="14">Actors/dates: trusted host inputs · closes</text><text x="40" y="334" font-size="14">by date or host control</text></g><g data-step="poll_totals" tabindex="0" role="button" aria-label="poll_totals tally@2"><title>/runbook/steps/1</title><rect x="93" y="411" width="230" height="81" rx="8" fill="#4eb1c5"/><text x="113" y="440" font-weight="700" font-size="18">Poll Totals</text><text x="303" y="440" text-anchor="end" font-family="ui-monospace, SFMono-Regular, Menlo, Consolas, monospace" font-size="13">tally@2</text><text x="113" y="463" font-size="14">Source: vote</text></g><g data-step="poll_choice" tabindex="0" role="button" aria-label="poll_choice select@1"><title>/runbook/steps/2</title><rect x="80" y="540" width="256" height="123" rx="8" fill="#dfc455"/><text x="100" y="569" font-weight="700" font-size="18">Poll Choice</text><text x="316" y="569" text-anchor="end" font-family="ui-monospace, SFMono-Regular, Menlo, Consolas, monospace" font-size="13">select@1</text><text x="100" y="592" font-size="14">Source: poll_totals</text><text x="100" y="613" font-size="14">Policy: policy:most_votes@1</text><text x="100" y="634" font-size="14">Ties: unresolved</text></g><g data-step="poll_result" tabindex="0" role="button" aria-label="poll_result present@1"><title>/runbook/steps/3</title><rect x="24" y="711" width="368" height="165" rx="8" fill="#7dc062"/><text x="44" y="740" font-weight="700" font-size="18">Poll Result</text><text x="372" y="740" text-anchor="end" font-family="ui-monospace, SFMono-Regular, Menlo, Consolas, monospace" font-size="13">present@1</text><text x="44" y="763" font-size="14">“Here is the vote result, including any</text><text x="44" y="784" font-size="14">selected subject, unresolved tie or empty</text><text x="44" y="805" font-size="14">outcome.”</text><text x="44" y="826" font-size="14">Source: poll_choice</text><text x="44" y="847" font-size="14">Audience: group</text></g><path d="M 208 363 L 208 392" fill="none" stroke="#418cdc" stroke-width="10" marker-end="url(#arrow-0)"/><text x="224" y="382.5" font-size="14">next</text><path d="M 208 492 L 208 521" fill="none" stroke="#4eb1c5" stroke-width="10" marker-end="url(#arrow-1)"/><text x="224" y="511.5" font-size="14">next</text><path d="M 208 663 L 208 692" fill="none" stroke="#dfc455" stroke-width="10" marker-end="url(#arrow-2)"/><text x="224" y="682.5" font-size="14">next</text></svg>