<svg xmlns="http://www.w3.org/2000/svg" width="600" height="920" viewBox="0 0 600 920" aria-label="Scheduled check-in and paired reflection runbook" style="font-family:Arial,sans-serif;fill:black"><defs><marker id="arrow-0" markerUnits="userSpaceOnUse" markerWidth="14" markerHeight="14" refX="0" refY="7" orient="auto"><path d="M0 0L14 7L0 14Z" fill="#418cdc"/></marker><marker id="arrow-1" markerUnits="userSpaceOnUse" markerWidth="14" markerHeight="14" refX="0" refY="7" orient="auto"><path d="M0 0L14 7L0 14Z" fill="#4eb1c5"/></marker><marker id="arrow-2" markerUnits="userSpaceOnUse" markerWidth="14" markerHeight="14" refX="0" refY="7" orient="auto"><path d="M0 0L14 7L0 14Z" fill="#dfc455"/></marker><marker id="arrow-3" markerUnits="userSpaceOnUse" markerWidth="14" markerHeight="14" refX="0" refY="7" orient="auto"><path d="M0 0L14 7L0 14Z" fill="#7dc062"/></marker></defs><rect width="100%" height="100%" fill="white"/><text x="20" y="32" font-size="24" font-weight="700">Scheduled check-in and paired reflection</text><text x="20" y="59" font-size="14">harmonomicon.activity-package/0.24</text><g data-step="opening" tabindex="0" role="button" aria-label="opening wait_until@1"><title>/runbook/steps/0</title><rect x="32" y="114" width="344" height="102" rx="8" fill="#418cdc"/><text x="52" y="143" font-weight="700" font-size="18">Opening</text><text x="356" y="143" text-anchor="end" font-family="ui-monospace, SFMono-Regular, Menlo, Consolas, monospace" font-size="13">wait_until@1</text><text x="52" y="166" font-size="14">Prompt from instance setting: question</text><text x="52" y="187" font-size="14">Waits until: instance setting opens_at</text></g><g data-step="answer" tabindex="0" role="button" aria-label="answer collect_until@1"><title>/runbook/steps/1</title><rect x="32" y="264" width="344" height="144" rx="8" fill="#4eb1c5"/><text x="52" y="293" font-weight="700" font-size="18">Answer</text><text x="356" y="293" text-anchor="end" font-family="ui-monospace, SFMono-Regular, Menlo, Consolas, monospace" font-size="13">collect_until@1</text><text x="52" y="316" font-size="14">Prompt from instance setting: question</text><text x="52" y="337" font-size="14">Closes at: instance setting closes_at</text><text x="52" y="358" font-size="14">Actors: participants</text><text x="52" y="379" font-size="14">value: text · private</text></g><g data-step="share" tabindex="0" role="button" aria-label="share reveal@1"><title>/runbook/steps/2</title><rect x="114" y="456" width="180" height="81" rx="8" fill="#dfc455"/><text x="134" y="485" font-weight="700" font-size="18">Share</text><text x="274" y="485" text-anchor="end" font-family="ui-monospace, SFMono-Regular, Menlo, Consolas, monospace" font-size="13">reveal@1</text><text x="134" y="508" font-size="14">Sources: answer</text></g><g data-step="pairs" tabindex="0" role="button" aria-label="pairs partition@1"><title>/runbook/steps/3</title><rect x="64" y="585" width="280" height="123" rx="8" fill="#7dc062"/><text x="84" y="614" font-weight="700" font-size="18">Pairs</text><text x="324" y="614" text-anchor="end" font-family="ui-monospace, SFMono-Regular, Menlo, Consolas, monospace" font-size="13">partition@1</text><text x="84" y="637" font-size="14">“Meet your pair.”</text><text x="84" y="658" font-size="14">Policy: policy:roster_chunks@1</text><text x="84" y="679" font-size="14">No timeout</text></g><g data-step="reflect" tabindex="0" role="button" aria-label="reflect collect_group@1"><title>/runbook/steps/4</title><rect x="20" y="756" width="368" height="144" rx="8" fill="#7d6cbd"/><text x="40" y="785" font-weight="700" font-size="18">Reflect</text><text x="368" y="785" text-anchor="end" font-family="ui-monospace, SFMono-Regular, Menlo, Consolas, monospace" font-size="13">collect_group@1</text><text x="40" y="808" font-size="14">“What stood out in the check-in?”</text><text x="40" y="829" font-size="14">Source: pairs</text><text x="40" y="850" font-size="14">Closes: all eligible submissions OR 5 min</text><text x="40" y="871" font-size="14">passes</text></g><path d="M 204 216 L 204 245" fill="none" stroke="#418cdc" stroke-width="10" marker-end="url(#arrow-0)"/><text x="220" y="235.5" font-size="14">next</text><path d="M 204 408 L 204 437" fill="none" stroke="#4eb1c5" stroke-width="10" marker-end="url(#arrow-1)"/><text x="220" y="427.5" font-size="14">next</text><path d="M 204 537 L 204 566" fill="none" stroke="#dfc455" stroke-width="10" marker-end="url(#arrow-2)"/><text x="220" y="556.5" font-size="14">next</text><path d="M 204 708 L 204 737" fill="none" stroke="#7dc062" stroke-width="10" marker-end="url(#arrow-3)"/><text x="220" y="727.5" font-size="14">next</text></svg>